# MagicaVoxel @ Ephtracy

# group
o 

# material
mtllib ammo_Laser.mtl
usemtl palette

# normals
vn -1 0 0
vn 1 0 0
vn 0 0 1
vn 0 0 -1
vn 0 -1 0
vn 0 1 0

# texcoords
vt 0.853516 0.5
vt 0.904297 0.5
vt 0.982422 0.5
vt 0.986328 0.5

# verts
v -0.6 0 0.9
v -0.6 0 0.4
v -0.6 0.4 0.9
v -0.6 0.4 0.4
v -0.6 0.5 0.9
v -0.6 0.5 0.4
v -0.5 0.5 0.7
v -0.5 0.5 0.6
v -0.5 0.6 0.7
v -0.5 0.6 0.6
v -0.4 0.6 0.7
v -0.4 0.6 0.6
v -0.4 0.7 0.7
v -0.4 0.7 0.6
v 5.96046e-08 0.5 0.7
v 5.96046e-08 0.5 0.6
v 5.96046e-08 0.6 0.7
v 5.96046e-08 0.6 0.6
v -0.4 0.5 0.7
v -0.4 0.5 0.6
v -0.4 0.6 0.7
v -0.4 0.6 0.6
v 5.96046e-08 0.6 0.7
v 5.96046e-08 0.6 0.6
v 5.96046e-08 0.7 0.7
v 5.96046e-08 0.7 0.6
v 0.1 0.5 0.7
v 0.1 0.5 0.6
v 0.1 0.6 0.7
v 0.1 0.6 0.6
v 0.2 0 0.9
v 0.2 0 0.4
v 0.2 0.4 0.9
v 0.2 0.4 0.4
v 0.2 0.5 0.9
v 0.2 0.5 0.4
v -0.6 0 0.9
v -0.6 0.4 0.9
v -0.6 0.5 0.9
v -0.4 0.2 0.9
v -0.4 0.3 0.9
v -0.2 0.2 0.9
v -0.2 0.3 0.9
v -0.0999999 0.2 0.9
v -0.0999999 0.3 0.9
v 0.1 0.2 0.9
v 0.1 0.3 0.9
v 0.2 0 0.9
v 0.2 0.4 0.9
v 0.2 0.5 0.9
v -0.5 0.5 0.7
v -0.5 0.6 0.7
v -0.4 0.5 0.7
v -0.4 0.6 0.7
v -0.4 0.7 0.7
v 5.96046e-08 0.5 0.7
v 5.96046e-08 0.6 0.7
v 5.96046e-08 0.7 0.7
v 0.1 0.5 0.7
v 0.1 0.6 0.7
v -0.5 0.5 0.6
v -0.5 0.6 0.6
v -0.4 0.5 0.6
v -0.4 0.6 0.6
v -0.4 0.7 0.6
v 5.96046e-08 0.5 0.6
v 5.96046e-08 0.6 0.6
v 5.96046e-08 0.7 0.6
v 0.1 0.5 0.6
v 0.1 0.6 0.6
v -0.6 0 0.4
v -0.6 0.4 0.4
v -0.6 0.5 0.4
v -0.5 0.2 0.4
v -0.5 0.3 0.4
v -0.4 0.2 0.4
v -0.4 0.3 0.4
v -0.3 0.2 0.4
v -0.3 0.3 0.4
v -0.2 0.2 0.4
v -0.2 0.3 0.4
v -0.0999999 0.2 0.4
v -0.0999999 0.3 0.4
v 0.1 0.2 0.4
v 0.1 0.3 0.4
v 0.2 0 0.4
v 0.2 0.4 0.4
v 0.2 0.5 0.4
v -0.6 0 0.9
v 0.2 0 0.9
v -0.6 0 0.4
v 0.2 0 0.4
v -0.4 0.6 0.7
v 5.96046e-08 0.6 0.7
v -0.4 0.6 0.6
v 5.96046e-08 0.6 0.6
v -0.6 0.5 0.9
v 0.2 0.5 0.9
v -0.5 0.5 0.7
v -0.4 0.5 0.7
v 5.96046e-08 0.5 0.7
v 0.1 0.5 0.7
v -0.5 0.5 0.6
v -0.4 0.5 0.6
v 5.96046e-08 0.5 0.6
v 0.1 0.5 0.6
v -0.6 0.5 0.4
v 0.2 0.5 0.4
v -0.5 0.6 0.7
v -0.4 0.6 0.7
v 5.96046e-08 0.6 0.7
v 0.1 0.6 0.7
v -0.5 0.6 0.6
v -0.4 0.6 0.6
v 5.96046e-08 0.6 0.6
v 0.1 0.6 0.6
v -0.4 0.7 0.7
v 5.96046e-08 0.7 0.7
v -0.4 0.7 0.6
v 5.96046e-08 0.7 0.6

# faces
f 3/3/1 2/3/1 1/3/1
f 4/3/1 2/3/1 3/3/1
f 5/4/1 4/4/1 3/4/1
f 6/4/1 4/4/1 5/4/1
f 9/3/1 8/3/1 7/3/1
f 10/3/1 8/3/1 9/3/1
f 13/3/1 12/3/1 11/3/1
f 14/3/1 12/3/1 13/3/1
f 17/3/1 16/3/1 15/3/1
f 18/3/1 16/3/1 17/3/1
f 19/3/2 20/3/2 21/3/2
f 21/3/2 20/3/2 22/3/2
f 23/3/2 24/3/2 25/3/2
f 25/3/2 24/3/2 26/3/2
f 27/3/2 28/3/2 29/3/2
f 29/3/2 28/3/2 30/3/2
f 31/3/2 32/3/2 33/3/2
f 33/3/2 32/3/2 34/3/2
f 33/4/2 34/4/2 35/4/2
f 35/4/2 34/4/2 36/4/2
f 40/3/3 38/3/3 37/3/3
f 41/3/3 38/3/3 40/3/3
f 42/3/3 40/3/3 37/3/3
f 42/1/3 41/1/3 40/1/3
f 43/3/3 38/3/3 41/3/3
f 43/1/3 41/1/3 42/1/3
f 44/3/3 42/3/3 37/3/3
f 44/3/3 43/3/3 42/3/3
f 45/3/3 38/3/3 43/3/3
f 45/3/3 43/3/3 44/3/3
f 46/3/3 44/3/3 37/3/3
f 46/1/3 45/1/3 44/1/3
f 47/3/3 38/3/3 45/3/3
f 47/1/3 45/1/3 46/1/3
f 48/3/3 46/3/3 37/3/3
f 48/3/3 47/3/3 46/3/3
f 49/4/3 39/4/3 38/4/3
f 49/3/3 47/3/3 48/3/3
f 49/3/3 38/3/3 47/3/3
f 50/4/3 39/4/3 49/4/3
f 53/3/3 52/3/3 51/3/3
f 54/3/3 52/3/3 53/3/3
f 57/3/3 55/3/3 54/3/3
f 58/3/3 55/3/3 57/3/3
f 59/3/3 57/3/3 56/3/3
f 60/3/3 57/3/3 59/3/3
f 61/3/4 62/3/4 63/3/4
f 63/3/4 62/3/4 64/3/4
f 64/3/4 65/3/4 67/3/4
f 67/3/4 65/3/4 68/3/4
f 66/3/4 67/3/4 69/3/4
f 69/3/4 67/3/4 70/3/4
f 71/3/4 72/3/4 74/3/4
f 74/3/4 72/3/4 75/3/4
f 71/3/4 74/3/4 76/3/4
f 74/1/4 75/1/4 76/1/4
f 75/3/4 72/3/4 77/3/4
f 76/1/4 75/1/4 77/1/4
f 71/3/4 76/3/4 78/3/4
f 76/3/4 77/3/4 78/3/4
f 77/3/4 72/3/4 79/3/4
f 78/3/4 77/3/4 79/3/4
f 71/3/4 78/3/4 80/3/4
f 78/1/4 79/1/4 80/1/4
f 79/3/4 72/3/4 81/3/4
f 80/1/4 79/1/4 81/1/4
f 71/3/4 80/3/4 82/3/4
f 80/3/4 81/3/4 82/3/4
f 81/3/4 72/3/4 83/3/4
f 82/3/4 81/3/4 83/3/4
f 71/3/4 82/3/4 84/3/4
f 82/1/4 83/1/4 84/1/4
f 83/3/4 72/3/4 85/3/4
f 84/1/4 83/1/4 85/1/4
f 71/3/4 84/3/4 86/3/4
f 84/3/4 85/3/4 86/3/4
f 72/4/4 73/4/4 87/4/4
f 86/3/4 85/3/4 87/3/4
f 85/3/4 72/3/4 87/3/4
f 87/4/4 73/4/4 88/4/4
f 91/3/5 90/3/5 89/3/5
f 92/3/5 90/3/5 91/3/5
f 95/3/5 94/3/5 93/3/5
f 96/3/5 94/3/5 95/3/5
f 97/4/6 98/4/6 99/4/6
f 99/4/6 98/4/6 100/4/6
f 100/4/6 98/4/6 101/4/6
f 101/4/6 98/4/6 102/4/6
f 97/4/6 99/4/6 103/4/6
f 100/4/6 101/4/6 104/4/6
f 104/4/6 101/4/6 105/4/6
f 102/4/6 98/4/6 106/4/6
f 104/4/6 105/4/6 107/4/6
f 105/4/6 106/4/6 107/4/6
f 97/4/6 103/4/6 107/4/6
f 103/4/6 104/4/6 107/4/6
f 106/4/6 98/4/6 108/4/6
f 107/4/6 106/4/6 108/4/6
f 109/3/6 110/3/6 113/3/6
f 113/3/6 110/3/6 114/3/6
f 111/3/6 112/3/6 115/3/6
f 115/3/6 112/3/6 116/3/6
f 117/3/6 118/3/6 119/3/6
f 119/3/6 118/3/6 120/3/6
