# MagicaVoxel @ Ephtracy

# group
o 

# material
mtllib Pistol_ammo.mtl
usemtl palette

# normals
vn -1 0 0
vn 1 0 0
vn 0 0 1
vn 0 0 -1
vn 0 -1 0
vn 0 1 0

# texcoords
vt 0.0371094 0.5
vt 0.0644531 0.5

# verts
v -0.8 0 0.9
v -0.8 0 0.8
v -0.8 0.2 0.9
v -0.8 0.2 0.8
v -0.8 0.3 0.9
v -0.8 0.3 0.8
v -0.7 0 1
v -0.7 0 0.9
v -0.7 0.2 1
v -0.7 0.2 0.9
v -0.7 0.3 1
v -0.7 0.3 0.9
v -0.6 0 0.9
v -0.6 0 0.7
v -0.6 0.1 0.9
v -0.6 0.1 0.7
v -0.7 0 0.9
v -0.7 0 0.8
v -0.7 0.2 0.9
v -0.7 0.2 0.8
v -0.7 0.3 0.9
v -0.7 0.3 0.8
v -0.6 0.1 1
v -0.6 0.1 0.9
v -0.6 0.2 1
v -0.6 0.2 0.9
v -0.6 0.3 1
v -0.6 0.3 0.9
v -0.5 0 1
v -0.5 0 0.9
v -0.5 0 0.7
v -0.5 0.1 1
v -0.5 0.1 0.9
v -0.5 0.1 0.7
v -0.7 0 1
v -0.7 0.2 1
v -0.7 0.3 1
v -0.6 0 1
v -0.6 0.1 1
v -0.6 0.2 1
v -0.6 0.3 1
v -0.5 0 1
v -0.5 0.1 1
v -0.8 0 0.9
v -0.8 0.2 0.9
v -0.8 0.3 0.9
v -0.7 0 0.9
v -0.7 0.2 0.9
v -0.7 0.3 0.9
v -0.7 0 0.9
v -0.7 0.2 0.9
v -0.7 0.3 0.9
v -0.6 0 0.9
v -0.6 0.1 0.9
v -0.6 0.2 0.9
v -0.6 0.3 0.9
v -0.8 0 0.8
v -0.8 0.2 0.8
v -0.8 0.3 0.8
v -0.7 0 0.8
v -0.7 0.2 0.8
v -0.7 0.3 0.8
v -0.6 0 0.7
v -0.6 0.1 0.7
v -0.5 0 0.7
v -0.5 0.1 0.7
v -0.7 0 1
v -0.6 0 1
v -0.5 0 1
v -0.8 0 0.9
v -0.7 0 0.9
v -0.6 0 0.9
v -0.5 0 0.9
v -0.8 0 0.8
v -0.7 0 0.8
v -0.6 0 0.7
v -0.5 0 0.7
v -0.6 0.1 1
v -0.5 0.1 1
v -0.6 0.1 0.9
v -0.5 0.1 0.9
v -0.6 0.1 0.7
v -0.5 0.1 0.7
v -0.7 0.3 1
v -0.6 0.3 1
v -0.8 0.3 0.9
v -0.7 0.3 0.9
v -0.6 0.3 0.9
v -0.8 0.3 0.8
v -0.7 0.3 0.8

# faces
f 3/1/1 2/1/1 1/1/1
f 4/1/1 2/1/1 3/1/1
f 5/2/1 4/2/1 3/2/1
f 6/2/1 4/2/1 5/2/1
f 9/1/1 8/1/1 7/1/1
f 10/1/1 8/1/1 9/1/1
f 11/2/1 10/2/1 9/2/1
f 12/2/1 10/2/1 11/2/1
f 15/1/1 14/1/1 13/1/1
f 16/1/1 14/1/1 15/1/1
f 17/1/2 18/1/2 19/1/2
f 19/1/2 18/1/2 20/1/2
f 19/2/2 20/2/2 21/2/2
f 21/2/2 20/2/2 22/2/2
f 23/1/2 24/1/2 25/1/2
f 25/1/2 24/1/2 26/1/2
f 25/2/2 26/2/2 27/2/2
f 27/2/2 26/2/2 28/2/2
f 29/2/2 30/2/2 32/2/2
f 30/1/2 31/1/2 33/1/2
f 32/2/2 30/2/2 33/2/2
f 33/1/2 31/1/2 34/1/2
f 38/1/3 36/1/3 35/1/3
f 39/1/3 36/1/3 38/1/3
f 40/2/3 37/2/3 36/2/3
f 40/1/3 36/1/3 39/1/3
f 41/2/3 37/2/3 40/2/3
f 42/2/3 39/2/3 38/2/3
f 43/2/3 39/2/3 42/2/3
f 47/1/3 45/1/3 44/1/3
f 48/2/3 46/2/3 45/2/3
f 48/1/3 45/1/3 47/1/3
f 49/2/3 46/2/3 48/2/3
f 50/1/4 51/1/4 53/1/4
f 53/1/4 51/1/4 54/1/4
f 51/2/4 52/2/4 55/2/4
f 54/1/4 51/1/4 55/1/4
f 55/2/4 52/2/4 56/2/4
f 57/1/4 58/1/4 60/1/4
f 58/2/4 59/2/4 61/2/4
f 60/1/4 58/1/4 61/1/4
f 61/2/4 59/2/4 62/2/4
f 63/1/4 64/1/4 65/1/4
f 65/1/4 64/1/4 66/1/4
f 71/1/5 68/1/5 67/1/5
f 72/2/5 69/2/5 68/2/5
f 72/1/5 68/1/5 71/1/5
f 73/2/5 69/2/5 72/2/5
f 74/1/5 71/1/5 70/1/5
f 75/1/5 71/1/5 74/1/5
f 76/1/5 73/1/5 72/1/5
f 77/1/5 73/1/5 76/1/5
f 78/2/6 79/2/6 80/2/6
f 80/2/6 79/2/6 81/2/6
f 80/1/6 81/1/6 82/1/6
f 82/1/6 81/1/6 83/1/6
f 84/2/6 85/2/6 87/2/6
f 87/2/6 85/2/6 88/2/6
f 86/2/6 87/2/6 89/2/6
f 89/2/6 87/2/6 90/2/6
