# MagicaVoxel @ Ephtracy

# group
o 

# material
mtllib Human_Torso.mtl
usemtl palette

# normals
vn -1 0 0
vn 1 0 0
vn 0 0 1
vn 0 0 -1
vn 0 -1 0
vn 0 1 0

# texcoords
vt 0.943359 0.5
vt 0.970703 0.5
vt 0.974609 0.5
vt 0.986328 0.5
vt 0.990234 0.5
vt 0.994141 0.5

# verts
v -0.4 0.9 -0.1
v -0.4 0.9 -0.3
v -0.4 1.1 -0.1
v -0.4 1.1 -0.3
v -0.3 0.4 0
v -0.3 0.4 -0.1
v -0.3 0.4 -0.3
v -0.3 0.4 -0.4
v -0.3 0.5 0
v -0.3 0.5 -0.1
v -0.3 0.5 -0.3
v -0.3 0.5 -0.4
v -0.3 0.6 0
v -0.3 0.6 -0.1
v -0.3 0.6 -0.3
v -0.3 0.6 -0.4
v -0.3 0.9 -0.1
v -0.3 0.9 -0.3
v -0.3 1.1 0
v -0.3 1.1 -0.1
v -0.3 1.1 -0.3
v -0.3 1.1 -0.4
v -0.1 1.1 -0.1
v -0.1 1.1 -0.3
v -0.1 1.2 -0.1
v -0.1 1.2 -0.3
v 0.1 1.1 -0.1
v 0.1 1.1 -0.3
v 0.1 1.2 -0.1
v 0.1 1.2 -0.3
v 0.3 0.4 0
v 0.3 0.4 -0.1
v 0.3 0.4 -0.3
v 0.3 0.4 -0.4
v 0.3 0.5 0
v 0.3 0.5 -0.1
v 0.3 0.5 -0.3
v 0.3 0.5 -0.4
v 0.3 0.6 0
v 0.3 0.6 -0.1
v 0.3 0.6 -0.3
v 0.3 0.6 -0.4
v 0.3 0.9 -0.1
v 0.3 0.9 -0.3
v 0.3 1.1 0
v 0.3 1.1 -0.1
v 0.3 1.1 -0.3
v 0.3 1.1 -0.4
v 0.4 0.9 -0.1
v 0.4 0.9 -0.3
v 0.4 1.1 -0.1
v 0.4 1.1 -0.3
v -0.3 0.4 0
v -0.3 0.5 0
v -0.3 0.6 0
v -0.3 1.1 0
v -0.2 0.4 0
v -0.2 0.5 0
v -0.2 0.6 0
v -0.2 1 0
v -0.1 0.5 0
v -0.1 0.6 0
v -0.1 1 0
v -0.1 1.1 0
v 0.1 0.5 0
v 0.1 0.6 0
v 0.1 1 0
v 0.1 1.1 0
v 0.2 0.4 0
v 0.2 0.5 0
v 0.2 0.6 0
v 0.2 1 0
v 0.3 0.4 0
v 0.3 0.5 0
v 0.3 0.6 0
v 0.3 1.1 0
v -0.4 0.9 -0.1
v -0.4 1.1 -0.1
v -0.3 0.9 -0.1
v -0.3 1.1 -0.1
v -0.1 1.1 -0.1
v -0.1 1.2 -0.1
v 0.1 1.1 -0.1
v 0.1 1.2 -0.1
v 0.3 0.9 -0.1
v 0.3 1.1 -0.1
v 0.4 0.9 -0.1
v 0.4 1.1 -0.1
v -0.4 0.9 -0.3
v -0.4 1.1 -0.3
v -0.3 0.9 -0.3
v -0.3 1.1 -0.3
v -0.1 1.1 -0.3
v -0.1 1.2 -0.3
v 0.1 1.1 -0.3
v 0.1 1.2 -0.3
v 0.3 0.9 -0.3
v 0.3 1.1 -0.3
v 0.4 0.9 -0.3
v 0.4 1.1 -0.3
v -0.3 0.4 -0.4
v -0.3 0.5 -0.4
v -0.3 0.6 -0.4
v -0.3 1.1 -0.4
v -0.2 0.4 -0.4
v -0.2 0.5 -0.4
v -0.2 0.6 -0.4
v -0.2 1 -0.4
v -0.1 1 -0.4
v -0.1 1.1 -0.4
v 0.1 1 -0.4
v 0.1 1.1 -0.4
v 0.2 0.4 -0.4
v 0.2 0.5 -0.4
v 0.2 0.6 -0.4
v 0.2 1 -0.4
v 0.3 0.4 -0.4
v 0.3 0.5 -0.4
v 0.3 0.6 -0.4
v 0.3 1.1 -0.4
v -0.3 0.4 0
v -0.2 0.4 0
v 0.2 0.4 0
v 0.3 0.4 0
v -0.3 0.4 -0.1
v -0.2 0.4 -0.1
v 0.2 0.4 -0.1
v 0.3 0.4 -0.1
v -0.3 0.4 -0.3
v -0.2 0.4 -0.3
v 0.2 0.4 -0.3
v 0.3 0.4 -0.3
v -0.3 0.4 -0.4
v -0.2 0.4 -0.4
v 0.2 0.4 -0.4
v 0.3 0.4 -0.4
v -0.4 0.9 -0.1
v -0.3 0.9 -0.1
v 0.3 0.9 -0.1
v 0.4 0.9 -0.1
v -0.4 0.9 -0.3
v -0.3 0.9 -0.3
v 0.3 0.9 -0.3
v 0.4 0.9 -0.3
v -0.3 1.1 0
v -0.1 1.1 0
v 0.1 1.1 0
v 0.3 1.1 0
v -0.4 1.1 -0.1
v -0.3 1.1 -0.1
v -0.1 1.1 -0.1
v 0.1 1.1 -0.1
v 0.3 1.1 -0.1
v 0.4 1.1 -0.1
v -0.4 1.1 -0.3
v -0.3 1.1 -0.3
v -0.1 1.1 -0.3
v 0.1 1.1 -0.3
v 0.3 1.1 -0.3
v 0.4 1.1 -0.3
v -0.3 1.1 -0.4
v -0.1 1.1 -0.4
v 0.1 1.1 -0.4
v 0.3 1.1 -0.4
v -0.1 1.2 -0.1
v 0.1 1.2 -0.1
v -0.1 1.2 -0.3
v 0.1 1.2 -0.3

# faces
f 3/6/1 2/6/1 1/6/1
f 4/6/1 2/6/1 3/6/1
f 9/3/1 6/3/1 5/3/1
f 10/6/1 7/6/1 6/6/1
f 10/3/1 6/3/1 9/3/1
f 11/3/1 8/3/1 7/3/1
f 11/6/1 7/6/1 10/6/1
f 12/3/1 8/3/1 11/3/1
f 13/2/1 10/2/1 9/2/1
f 13/2/1 11/2/1 10/2/1
f 13/2/1 12/2/1 11/2/1
f 14/2/1 12/2/1 13/2/1
f 15/2/1 12/2/1 14/2/1
f 16/2/1 12/2/1 15/2/1
f 17/3/1 14/3/1 13/3/1
f 17/6/1 15/6/1 14/6/1
f 18/3/1 16/3/1 15/3/1
f 18/6/1 15/6/1 17/6/1
f 19/3/1 17/3/1 13/3/1
f 20/3/1 17/3/1 19/3/1
f 21/3/1 16/3/1 18/3/1
f 22/3/1 16/3/1 21/3/1
f 25/5/1 24/5/1 23/5/1
f 26/5/1 24/5/1 25/5/1
f 27/5/2 28/5/2 29/5/2
f 29/5/2 28/5/2 30/5/2
f 31/3/2 32/3/2 35/3/2
f 32/6/2 33/6/2 36/6/2
f 35/3/2 32/3/2 36/3/2
f 33/3/2 34/3/2 37/3/2
f 36/6/2 33/6/2 37/6/2
f 37/3/2 34/3/2 38/3/2
f 35/2/2 36/2/2 39/2/2
f 36/2/2 37/2/2 39/2/2
f 37/2/2 38/2/2 39/2/2
f 39/2/2 38/2/2 40/2/2
f 40/2/2 38/2/2 41/2/2
f 41/2/2 38/2/2 42/2/2
f 39/3/2 40/3/2 43/3/2
f 40/6/2 41/6/2 43/6/2
f 41/3/2 42/3/2 44/3/2
f 43/6/2 41/6/2 44/6/2
f 39/3/2 43/3/2 45/3/2
f 45/3/2 43/3/2 46/3/2
f 44/3/2 42/3/2 47/3/2
f 47/3/2 42/3/2 48/3/2
f 49/6/2 50/6/2 51/6/2
f 51/6/2 50/6/2 52/6/2
f 57/3/3 54/3/3 53/3/3
f 58/2/3 55/2/3 54/2/3
f 58/3/3 54/3/3 57/3/3
f 59/3/3 56/3/3 55/3/3
f 59/2/3 55/2/3 58/2/3
f 60/3/3 56/3/3 59/3/3
f 61/6/3 58/6/3 57/6/3
f 61/2/3 59/2/3 58/2/3
f 62/6/3 60/6/3 59/6/3
f 62/2/3 59/2/3 61/2/3
f 63/3/3 56/3/3 60/3/3
f 63/6/3 60/6/3 62/6/3
f 64/3/3 56/3/3 63/3/3
f 65/4/3 62/4/3 61/4/3
f 65/6/3 61/6/3 57/6/3
f 66/6/3 64/6/3 63/6/3
f 66/4/3 62/4/3 65/4/3
f 66/6/3 63/6/3 62/6/3
f 67/6/3 64/6/3 66/6/3
f 68/6/3 64/6/3 67/6/3
f 69/6/3 65/6/3 57/6/3
f 70/2/3 66/2/3 65/2/3
f 70/6/3 65/6/3 69/6/3
f 71/6/3 67/6/3 66/6/3
f 71/2/3 66/2/3 70/2/3
f 72/3/3 68/3/3 67/3/3
f 72/6/3 67/6/3 71/6/3
f 73/3/3 70/3/3 69/3/3
f 74/2/3 71/2/3 70/2/3
f 74/3/3 70/3/3 73/3/3
f 75/3/3 72/3/3 71/3/3
f 75/2/3 71/2/3 74/2/3
f 76/3/3 68/3/3 72/3/3
f 76/3/3 72/3/3 75/3/3
f 79/6/3 78/6/3 77/6/3
f 80/6/3 78/6/3 79/6/3
f 83/5/3 82/5/3 81/5/3
f 84/5/3 82/5/3 83/5/3
f 87/6/3 86/6/3 85/6/3
f 88/6/3 86/6/3 87/6/3
f 89/6/4 90/6/4 91/6/4
f 91/6/4 90/6/4 92/6/4
f 93/5/4 94/5/4 95/5/4
f 95/5/4 94/5/4 96/5/4
f 97/6/4 98/6/4 99/6/4
f 99/6/4 98/6/4 100/6/4
f 101/3/4 102/3/4 105/3/4
f 102/2/4 103/2/4 106/2/4
f 105/3/4 102/3/4 106/3/4
f 103/3/4 104/3/4 107/3/4
f 106/2/4 103/2/4 107/2/4
f 107/3/4 104/3/4 108/3/4
f 107/6/4 108/6/4 109/6/4
f 108/3/4 104/3/4 109/3/4
f 109/3/4 104/3/4 110/3/4
f 107/6/4 109/6/4 111/6/4
f 109/6/4 110/6/4 111/6/4
f 111/6/4 110/6/4 112/6/4
f 105/6/4 106/6/4 113/6/4
f 106/2/4 107/2/4 114/2/4
f 113/6/4 106/6/4 114/6/4
f 107/6/4 111/6/4 115/6/4
f 114/2/4 107/2/4 115/2/4
f 111/3/4 112/3/4 116/3/4
f 115/6/4 111/6/4 116/6/4
f 113/3/4 114/3/4 117/3/4
f 114/2/4 115/2/4 118/2/4
f 117/3/4 114/3/4 118/3/4
f 115/3/4 116/3/4 119/3/4
f 118/2/4 115/2/4 119/2/4
f 116/3/4 112/3/4 120/3/4
f 119/3/4 116/3/4 120/3/4
f 125/3/5 122/3/5 121/3/5
f 126/6/5 123/6/5 122/6/5
f 126/3/5 122/3/5 125/3/5
f 127/3/5 124/3/5 123/3/5
f 127/6/5 123/6/5 126/6/5
f 128/3/5 124/3/5 127/3/5
f 129/6/5 126/6/5 125/6/5
f 129/6/5 127/6/5 126/6/5
f 129/6/5 128/6/5 127/6/5
f 130/6/5 128/6/5 129/6/5
f 131/6/5 128/6/5 130/6/5
f 132/6/5 128/6/5 131/6/5
f 133/3/5 130/3/5 129/3/5
f 134/6/5 131/6/5 130/6/5
f 134/3/5 130/3/5 133/3/5
f 135/3/5 132/3/5 131/3/5
f 135/6/5 131/6/5 134/6/5
f 136/3/5 132/3/5 135/3/5
f 141/6/5 138/6/5 137/6/5
f 142/6/5 138/6/5 141/6/5
f 143/6/5 140/6/5 139/6/5
f 144/6/5 140/6/5 143/6/5
f 145/3/6 146/3/6 150/3/6
f 146/6/6 147/6/6 151/6/6
f 150/3/6 146/3/6 151/3/6
f 147/3/6 148/3/6 152/3/6
f 151/6/6 147/6/6 152/6/6
f 152/3/6 148/3/6 153/3/6
f 150/6/6 151/6/6 155/6/6
f 149/6/6 150/6/6 155/6/6
f 155/6/6 151/6/6 156/6/6
f 156/6/6 151/6/6 157/6/6
f 153/6/6 154/6/6 158/6/6
f 152/6/6 153/6/6 158/6/6
f 158/6/6 154/6/6 159/6/6
f 159/6/6 154/6/6 160/6/6
f 156/3/6 157/3/6 161/3/6
f 157/6/6 158/6/6 162/6/6
f 161/3/6 157/3/6 162/3/6
f 158/3/6 159/3/6 163/3/6
f 162/6/6 158/6/6 163/6/6
f 163/3/6 159/3/6 164/3/6
f 165/5/6 166/5/6 167/5/6
f 167/5/6 166/5/6 168/5/6
