# MagicaVoxel @ Ephtracy

# group
o 

# material
mtllib untitled.mtl
usemtl palette

# normals
vn -1 0 0
vn 1 0 0
vn 0 0 1
vn 0 0 -1
vn 0 -1 0
vn 0 1 0

# texcoords
vt 0.00195312 0.5
vt 0.974609 0.5
vt 0.982422 0.5

# verts
v -0.6 0 0.2
v -0.6 0 -0.2
v -0.6 0.1 0.2
v -0.6 0.1 -0.2
v -0.5 0 0.3
v -0.5 0 0.2
v -0.5 0 -0.2
v -0.5 0 -0.3
v -0.5 0.1 0.3
v -0.5 0.1 0.2
v -0.5 0.1 0.1
v -0.5 0.1 -0.1
v -0.5 0.1 -0.2
v -0.5 0.1 -0.3
v -0.5 0.2 0.1
v -0.5 0.2 -0.1
v -0.4 0.1 0.2
v -0.4 0.1 0.1
v -0.4 0.1 -0.1
v -0.4 0.1 -0.2
v -0.4 0.2 0.2
v -0.4 0.2 0.1
v -0.4 0.2 -0.1
v -0.4 0.2 -0.2
v -0.4 0.3 0.1
v -0.4 0.3 -0.1
v -0.3 0.1 0.3
v -0.3 0.1 0.2
v -0.3 0.1 -0.2
v -0.3 0.1 -0.3
v -0.3 0.2 0.3
v -0.3 0.2 0.2
v -0.3 0.2 0.1
v -0.3 0.2 -0.1
v -0.3 0.2 -0.2
v -0.3 0.2 -0.3
v -0.3 0.3 0.2
v -0.3 0.3 0.1
v -0.3 0.3 -0.1
v -0.3 0.3 -0.2
v -5.96046e-08 0.1 0.3
v -5.96046e-08 0.1 0.2
v -5.96046e-08 0.1 -0.2
v -5.96046e-08 0.1 -0.3
v -5.96046e-08 0.2 0.3
v -5.96046e-08 0.2 0.2
v -5.96046e-08 0.2 0.1
v -5.96046e-08 0.2 -0.1
v -5.96046e-08 0.2 -0.2
v -5.96046e-08 0.2 -0.3
v -5.96046e-08 0.3 0.2
v -5.96046e-08 0.3 0.1
v -5.96046e-08 0.3 -0.1
v -5.96046e-08 0.3 -0.2
v -0.2 0.1 0.3
v -0.2 0.1 0.2
v -0.2 0.1 -0.2
v -0.2 0.1 -0.3
v -0.2 0.2 0.3
v -0.2 0.2 0.2
v -0.2 0.2 0.1
v -0.2 0.2 -0.1
v -0.2 0.2 -0.2
v -0.2 0.2 -0.3
v -0.2 0.3 0.2
v -0.2 0.3 0.1
v -0.2 0.3 -0.1
v -0.2 0.3 -0.2
v 0.1 0.1 0.3
v 0.1 0.1 0.2
v 0.1 0.1 -0.2
v 0.1 0.1 -0.3
v 0.1 0.2 0.3
v 0.1 0.2 0.2
v 0.1 0.2 0.1
v 0.1 0.2 -0.1
v 0.1 0.2 -0.2
v 0.1 0.2 -0.3
v 0.1 0.3 0.2
v 0.1 0.3 0.1
v 0.1 0.3 -0.1
v 0.1 0.3 -0.2
v 0.2 0.1 0.2
v 0.2 0.1 0.1
v 0.2 0.1 -0.1
v 0.2 0.1 -0.2
v 0.2 0.2 0.2
v 0.2 0.2 0.1
v 0.2 0.2 -0.1
v 0.2 0.2 -0.2
v 0.2 0.3 0.1
v 0.2 0.3 -0.1
v 0.3 0 0.3
v 0.3 0 0.2
v 0.3 0 -0.2
v 0.3 0 -0.3
v 0.3 0.1 0.3
v 0.3 0.1 0.2
v 0.3 0.1 0.1
v 0.3 0.1 -0.1
v 0.3 0.1 -0.2
v 0.3 0.1 -0.3
v 0.3 0.2 0.1
v 0.3 0.2 -0.1
v 0.4 0 0.2
v 0.4 0 -0.2
v 0.4 0.1 0.2
v 0.4 0.1 -0.2
v -0.5 0 0.3
v -0.5 0.1 0.3
v -0.3 0.1 0.3
v -0.3 0.2 0.3
v -0.2 0.1 0.3
v -0.2 0.2 0.3
v -5.96046e-08 0.1 0.3
v -5.96046e-08 0.2 0.3
v 0.1 0.1 0.3
v 0.1 0.2 0.3
v 0.3 0 0.3
v 0.3 0.1 0.3
v -0.6 0 0.2
v -0.6 0.1 0.2
v -0.5 0 0.2
v -0.5 0.1 0.2
v -0.4 0.1 0.2
v -0.4 0.2 0.2
v -0.3 0.1 0.2
v -0.3 0.2 0.2
v -0.3 0.3 0.2
v -0.2 0.1 0.2
v -0.2 0.2 0.2
v -0.2 0.3 0.2
v -5.96046e-08 0.1 0.2
v -5.96046e-08 0.2 0.2
v -5.96046e-08 0.3 0.2
v 0.1 0.1 0.2
v 0.1 0.2 0.2
v 0.1 0.3 0.2
v 0.2 0.1 0.2
v 0.2 0.2 0.2
v 0.3 0 0.2
v 0.3 0.1 0.2
v 0.4 0 0.2
v 0.4 0.1 0.2
v -0.5 0.1 0.1
v -0.5 0.2 0.1
v -0.4 0.1 0.1
v -0.4 0.2 0.1
v -0.4 0.3 0.1
v -0.3 0.2 0.1
v -0.3 0.3 0.1
v -0.2 0.2 0.1
v -0.2 0.3 0.1
v -5.96046e-08 0.2 0.1
v -5.96046e-08 0.3 0.1
v 0.1 0.2 0.1
v 0.1 0.3 0.1
v 0.2 0.1 0.1
v 0.2 0.2 0.1
v 0.2 0.3 0.1
v 0.3 0.1 0.1
v 0.3 0.2 0.1
v -0.5 0.1 -0.1
v -0.5 0.2 -0.1
v -0.4 0.1 -0.1
v -0.4 0.2 -0.1
v -0.4 0.3 -0.1
v -0.3 0.2 -0.1
v -0.3 0.3 -0.1
v -0.2 0.2 -0.1
v -0.2 0.3 -0.1
v -5.96046e-08 0.2 -0.1
v -5.96046e-08 0.3 -0.1
v 0.1 0.2 -0.1
v 0.1 0.3 -0.1
v 0.2 0.1 -0.1
v 0.2 0.2 -0.1
v 0.2 0.3 -0.1
v 0.3 0.1 -0.1
v 0.3 0.2 -0.1
v -0.6 0 -0.2
v -0.6 0.1 -0.2
v -0.5 0 -0.2
v -0.5 0.1 -0.2
v -0.4 0.1 -0.2
v -0.4 0.2 -0.2
v -0.3 0.1 -0.2
v -0.3 0.2 -0.2
v -0.3 0.3 -0.2
v -0.2 0.1 -0.2
v -0.2 0.2 -0.2
v -0.2 0.3 -0.2
v -5.96046e-08 0.1 -0.2
v -5.96046e-08 0.2 -0.2
v -5.96046e-08 0.3 -0.2
v 0.1 0.1 -0.2
v 0.1 0.2 -0.2
v 0.1 0.3 -0.2
v 0.2 0.1 -0.2
v 0.2 0.2 -0.2
v 0.3 0 -0.2
v 0.3 0.1 -0.2
v 0.4 0 -0.2
v 0.4 0.1 -0.2
v -0.5 0 -0.3
v -0.5 0.1 -0.3
v -0.3 0.1 -0.3
v -0.3 0.2 -0.3
v -0.2 0.1 -0.3
v -0.2 0.2 -0.3
v -5.96046e-08 0.1 -0.3
v -5.96046e-08 0.2 -0.3
v 0.1 0.1 -0.3
v 0.1 0.2 -0.3
v 0.3 0 -0.3
v 0.3 0.1 -0.3
v -0.5 0 0.3
v 0.3 0 0.3
v -0.6 0 0.2
v -0.5 0 0.2
v 0.3 0 0.2
v 0.4 0 0.2
v -0.6 0 -0.2
v -0.5 0 -0.2
v 0.3 0 -0.2
v 0.4 0 -0.2
v -0.5 0 -0.3
v 0.3 0 -0.3
v -0.5 0.1 0.3
v -0.3 0.1 0.3
v -0.2 0.1 0.3
v -5.96046e-08 0.1 0.3
v 0.1 0.1 0.3
v 0.3 0.1 0.3
v -0.6 0.1 0.2
v -0.5 0.1 0.2
v -0.4 0.1 0.2
v -0.3 0.1 0.2
v -0.2 0.1 0.2
v -5.96046e-08 0.1 0.2
v 0.1 0.1 0.2
v 0.2 0.1 0.2
v 0.3 0.1 0.2
v 0.4 0.1 0.2
v -0.5 0.1 0.1
v -0.4 0.1 0.1
v 0.2 0.1 0.1
v 0.3 0.1 0.1
v -0.5 0.1 -0.1
v -0.4 0.1 -0.1
v 0.2 0.1 -0.1
v 0.3 0.1 -0.1
v -0.6 0.1 -0.2
v -0.5 0.1 -0.2
v -0.4 0.1 -0.2
v -0.3 0.1 -0.2
v -0.2 0.1 -0.2
v -5.96046e-08 0.1 -0.2
v 0.1 0.1 -0.2
v 0.2 0.1 -0.2
v 0.3 0.1 -0.2
v 0.4 0.1 -0.2
v -0.5 0.1 -0.3
v -0.3 0.1 -0.3
v -0.2 0.1 -0.3
v -5.96046e-08 0.1 -0.3
v 0.1 0.1 -0.3
v 0.3 0.1 -0.3
v -0.3 0.2 0.3
v -0.2 0.2 0.3
v -5.96046e-08 0.2 0.3
v 0.1 0.2 0.3
v -0.4 0.2 0.2
v -0.3 0.2 0.2
v -0.2 0.2 0.2
v -5.96046e-08 0.2 0.2
v 0.1 0.2 0.2
v 0.2 0.2 0.2
v -0.5 0.2 0.1
v -0.4 0.2 0.1
v -0.3 0.2 0.1
v -0.2 0.2 0.1
v -5.96046e-08 0.2 0.1
v 0.1 0.2 0.1
v 0.2 0.2 0.1
v 0.3 0.2 0.1
v -0.5 0.2 -0.1
v -0.4 0.2 -0.1
v -0.3 0.2 -0.1
v -0.2 0.2 -0.1
v -5.96046e-08 0.2 -0.1
v 0.1 0.2 -0.1
v 0.2 0.2 -0.1
v 0.3 0.2 -0.1
v -0.4 0.2 -0.2
v -0.3 0.2 -0.2
v -0.2 0.2 -0.2
v -5.96046e-08 0.2 -0.2
v 0.1 0.2 -0.2
v 0.2 0.2 -0.2
v -0.3 0.2 -0.3
v -0.2 0.2 -0.3
v -5.96046e-08 0.2 -0.3
v 0.1 0.2 -0.3
v -0.3 0.3 0.2
v -0.2 0.3 0.2
v -5.96046e-08 0.3 0.2
v 0.1 0.3 0.2
v -0.4 0.3 0.1
v -0.3 0.3 0.1
v -0.2 0.3 0.1
v -5.96046e-08 0.3 0.1
v 0.1 0.3 0.1
v 0.2 0.3 0.1
v -0.4 0.3 -0.1
v -0.3 0.3 -0.1
v -0.2 0.3 -0.1
v -5.96046e-08 0.3 -0.1
v 0.1 0.3 -0.1
v 0.2 0.3 -0.1
v -0.3 0.3 -0.2
v -0.2 0.3 -0.2
v -5.96046e-08 0.3 -0.2
v 0.1 0.3 -0.2

# faces
f 3/3/1 2/3/1 1/3/1
f 4/3/1 2/3/1 3/3/1
f 9/3/1 6/3/1 5/3/1
f 10/3/1 6/3/1 9/3/1
f 13/3/1 8/3/1 7/3/1
f 14/3/1 8/3/1 13/3/1
f 15/1/1 12/1/1 11/1/1
f 16/1/1 12/1/1 15/1/1
f 21/1/1 18/1/1 17/1/1
f 22/1/1 18/1/1 21/1/1
f 23/1/1 20/1/1 19/1/1
f 24/1/1 20/1/1 23/1/1
f 25/1/1 23/1/1 22/1/1
f 26/1/1 23/1/1 25/1/1
f 31/2/1 28/2/1 27/2/1
f 32/2/1 28/2/1 31/2/1
f 35/2/1 30/2/1 29/2/1
f 36/2/1 30/2/1 35/2/1
f 37/2/1 33/2/1 32/2/1
f 38/2/1 33/2/1 37/2/1
f 39/2/1 35/2/1 34/2/1
f 40/2/1 35/2/1 39/2/1
f 45/2/1 42/2/1 41/2/1
f 46/2/1 42/2/1 45/2/1
f 49/2/1 44/2/1 43/2/1
f 50/2/1 44/2/1 49/2/1
f 51/2/1 47/2/1 46/2/1
f 52/2/1 47/2/1 51/2/1
f 53/2/1 49/2/1 48/2/1
f 54/2/1 49/2/1 53/2/1
f 55/2/2 56/2/2 59/2/2
f 59/2/2 56/2/2 60/2/2
f 57/2/2 58/2/2 63/2/2
f 63/2/2 58/2/2 64/2/2
f 60/2/2 61/2/2 65/2/2
f 65/2/2 61/2/2 66/2/2
f 62/2/2 63/2/2 67/2/2
f 67/2/2 63/2/2 68/2/2
f 69/2/2 70/2/2 73/2/2
f 73/2/2 70/2/2 74/2/2
f 71/2/2 72/2/2 77/2/2
f 77/2/2 72/2/2 78/2/2
f 74/2/2 75/2/2 79/2/2
f 79/2/2 75/2/2 80/2/2
f 76/2/2 77/2/2 81/2/2
f 81/2/2 77/2/2 82/2/2
f 83/1/2 84/1/2 87/1/2
f 87/1/2 84/1/2 88/1/2
f 85/1/2 86/1/2 89/1/2
f 89/1/2 86/1/2 90/1/2
f 88/1/2 89/1/2 91/1/2
f 91/1/2 89/1/2 92/1/2
f 93/3/2 94/3/2 97/3/2
f 97/3/2 94/3/2 98/3/2
f 95/3/2 96/3/2 101/3/2
f 101/3/2 96/3/2 102/3/2
f 99/1/2 100/1/2 103/1/2
f 103/1/2 100/1/2 104/1/2
f 105/3/2 106/3/2 107/3/2
f 107/3/2 106/3/2 108/3/2
f 111/3/3 110/3/3 109/3/3
f 113/3/3 111/3/3 109/3/3
f 113/2/3 112/2/3 111/2/3
f 114/2/3 112/2/3 113/2/3
f 115/3/3 113/3/3 109/3/3
f 117/3/3 115/3/3 109/3/3
f 117/2/3 116/2/3 115/2/3
f 118/2/3 116/2/3 117/2/3
f 119/3/3 117/3/3 109/3/3
f 120/3/3 117/3/3 119/3/3
f 123/3/3 122/3/3 121/3/3
f 124/3/3 122/3/3 123/3/3
f 127/1/3 126/1/3 125/1/3
f 128/1/3 126/1/3 127/1/3
f 131/2/3 129/2/3 128/2/3
f 132/2/3 129/2/3 131/2/3
f 133/1/3 131/1/3 130/1/3
f 134/1/3 131/1/3 133/1/3
f 137/2/3 135/2/3 134/2/3
f 138/2/3 135/2/3 137/2/3
f 139/1/3 137/1/3 136/1/3
f 140/1/3 137/1/3 139/1/3
f 143/3/3 142/3/3 141/3/3
f 144/3/3 142/3/3 143/3/3
f 147/1/3 146/1/3 145/1/3
f 148/1/3 146/1/3 147/1/3
f 150/1/3 149/1/3 148/1/3
f 151/1/3 149/1/3 150/1/3
f 154/1/3 153/1/3 152/1/3
f 155/1/3 153/1/3 154/1/3
f 159/1/3 157/1/3 156/1/3
f 160/1/3 157/1/3 159/1/3
f 161/1/3 159/1/3 158/1/3
f 162/1/3 159/1/3 161/1/3
f 163/1/4 164/1/4 165/1/4
f 165/1/4 164/1/4 166/1/4
f 166/1/4 167/1/4 168/1/4
f 168/1/4 167/1/4 169/1/4
f 170/1/4 171/1/4 172/1/4
f 172/1/4 171/1/4 173/1/4
f 174/1/4 175/1/4 177/1/4
f 177/1/4 175/1/4 178/1/4
f 176/1/4 177/1/4 179/1/4
f 179/1/4 177/1/4 180/1/4
f 181/3/4 182/3/4 183/3/4
f 183/3/4 182/3/4 184/3/4
f 185/1/4 186/1/4 187/1/4
f 187/1/4 186/1/4 188/1/4
f 188/2/4 189/2/4 191/2/4
f 191/2/4 189/2/4 192/2/4
f 190/1/4 191/1/4 193/1/4
f 193/1/4 191/1/4 194/1/4
f 194/2/4 195/2/4 197/2/4
f 197/2/4 195/2/4 198/2/4
f 196/1/4 197/1/4 199/1/4
f 199/1/4 197/1/4 200/1/4
f 201/3/4 202/3/4 203/3/4
f 203/3/4 202/3/4 204/3/4
f 205/3/4 206/3/4 207/3/4
f 205/3/4 207/3/4 209/3/4
f 207/2/4 208/2/4 209/2/4
f 209/2/4 208/2/4 210/2/4
f 205/3/4 209/3/4 211/3/4
f 205/3/4 211/3/4 213/3/4
f 211/2/4 212/2/4 213/2/4
f 213/2/4 212/2/4 214/2/4
f 205/3/4 213/3/4 215/3/4
f 215/3/4 213/3/4 216/3/4
f 220/3/5 218/3/5 217/3/5
f 221/3/5 218/3/5 220/3/5
f 223/3/5 220/3/5 219/3/5
f 223/3/5 222/3/5 221/3/5
f 223/3/5 221/3/5 220/3/5
f 224/3/5 222/3/5 223/3/5
f 225/3/5 222/3/5 224/3/5
f 226/3/5 222/3/5 225/3/5
f 227/3/5 225/3/5 224/3/5
f 228/3/5 225/3/5 227/3/5
f 229/3/6 230/3/6 236/3/6
f 236/3/6 230/3/6 237/3/6
f 237/3/6 230/3/6 238/3/6
f 231/3/6 232/3/6 239/3/6
f 239/3/6 232/3/6 240/3/6
f 233/3/6 234/3/6 241/3/6
f 241/3/6 234/3/6 242/3/6
f 242/3/6 234/3/6 243/3/6
f 235/3/6 236/3/6 245/3/6
f 236/3/6 237/3/6 245/3/6
f 245/3/6 237/3/6 246/3/6
f 243/3/6 244/3/6 247/3/6
f 242/3/6 243/3/6 247/3/6
f 247/3/6 244/3/6 248/3/6
f 235/3/6 245/3/6 249/3/6
f 248/3/6 244/3/6 252/3/6
f 249/3/6 250/3/6 253/3/6
f 235/3/6 249/3/6 253/3/6
f 253/3/6 250/3/6 254/3/6
f 254/3/6 250/3/6 255/3/6
f 251/3/6 252/3/6 260/3/6
f 252/3/6 244/3/6 261/3/6
f 260/3/6 252/3/6 261/3/6
f 261/3/6 244/3/6 262/3/6
f 254/3/6 255/3/6 263/3/6
f 255/3/6 256/3/6 263/3/6
f 263/3/6 256/3/6 264/3/6
f 257/3/6 258/3/6 265/3/6
f 265/3/6 258/3/6 266/3/6
f 259/3/6 260/3/6 267/3/6
f 260/3/6 261/3/6 267/3/6
f 267/3/6 261/3/6 268/3/6
f 269/2/6 270/2/6 274/2/6
f 274/2/6 270/2/6 275/2/6
f 271/2/6 272/2/6 276/2/6
f 276/2/6 272/2/6 277/2/6
f 273/1/6 274/1/6 280/1/6
f 280/1/6 274/1/6 281/1/6
f 275/1/6 276/1/6 282/1/6
f 282/1/6 276/1/6 283/1/6
f 277/1/6 278/1/6 284/1/6
f 284/1/6 278/1/6 285/1/6
f 279/1/6 280/1/6 287/1/6
f 287/1/6 280/1/6 288/1/6
f 285/1/6 286/1/6 293/1/6
f 293/1/6 286/1/6 294/1/6
f 288/1/6 289/1/6 295/1/6
f 295/1/6 289/1/6 296/1/6
f 290/1/6 291/1/6 297/1/6
f 297/1/6 291/1/6 298/1/6
f 292/1/6 293/1/6 299/1/6
f 299/1/6 293/1/6 300/1/6
f 296/2/6 297/2/6 301/2/6
f 301/2/6 297/2/6 302/2/6
f 298/2/6 299/2/6 303/2/6
f 303/2/6 299/2/6 304/2/6
f 305/2/6 306/2/6 310/2/6
f 310/2/6 306/2/6 311/2/6
f 307/2/6 308/2/6 312/2/6
f 312/2/6 308/2/6 313/2/6
f 309/1/6 310/1/6 315/1/6
f 310/2/6 311/2/6 316/2/6
f 315/1/6 310/1/6 316/1/6
f 311/1/6 312/1/6 317/1/6
f 316/2/6 311/2/6 317/2/6
f 312/2/6 313/2/6 318/2/6
f 317/1/6 312/1/6 318/1/6
f 313/1/6 314/1/6 319/1/6
f 318/2/6 313/2/6 319/2/6
f 319/1/6 314/1/6 320/1/6
f 316/2/6 317/2/6 321/2/6
f 321/2/6 317/2/6 322/2/6
f 318/2/6 319/2/6 323/2/6
f 323/2/6 319/2/6 324/2/6
