# MagicaVoxel @ Ephtracy

# group
o 

# material
mtllib Zombie_Torso.mtl
usemtl palette

# normals
vn -1 0 0
vn 1 0 0
vn 0 0 1
vn 0 0 -1
vn 0 -1 0
vn 0 1 0

# texcoords
vt 0.943359 0.5
vt 0.970703 0.5
vt 0.974609 0.5
vt 0.978516 0.5
vt 0.986328 0.5
vt 0.990234 0.5

# verts
v -0.4 0.9 -0.1
v -0.4 0.9 -0.2
v -0.4 0.9 -0.3
v -0.4 1 -0.2
v -0.4 1 -0.3
v -0.4 1.1 -0.1
v -0.4 1.1 -0.3
v -0.3 0.4 2.23517e-08
v -0.3 0.4 -0.1
v -0.3 0.4 -0.4
v -0.3 0.5 2.23517e-08
v -0.3 0.5 -0.1
v -0.3 0.5 -0.4
v -0.3 0.6 2.23517e-08
v -0.3 0.6 -0.1
v -0.3 0.6 -0.4
v -0.3 0.7 -0.2
v -0.3 0.7 -0.3
v -0.3 0.8 2.23517e-08
v -0.3 0.8 -0.1
v -0.3 0.9 2.23517e-08
v -0.3 0.9 -0.1
v -0.3 0.9 -0.2
v -0.3 0.9 -0.3
v -0.3 1 -0.3
v -0.3 1 -0.4
v -0.3 1.1 2.23517e-08
v -0.3 1.1 -0.1
v -0.3 1.1 -0.3
v -0.3 1.1 -0.4
v -0.1 1.1 -0.1
v -0.1 1.1 -0.3
v -0.1 1.2 -0.1
v -0.1 1.2 -0.3
v 0.1 1.1 -0.1
v 0.1 1.1 -0.3
v 0.1 1.2 -0.1
v 0.1 1.2 -0.3
v 0.3 0.4 2.23517e-08
v 0.3 0.4 -0.4
v 0.3 0.5 2.23517e-08
v 0.3 0.5 -0.4
v 0.3 0.6 2.23517e-08
v 0.3 0.6 -0.4
v 0.3 0.9 -0.1
v 0.3 0.9 -0.2
v 0.3 0.9 -0.3
v 0.3 1.1 2.23517e-08
v 0.3 1.1 -0.1
v 0.3 1.1 -0.3
v 0.3 1.1 -0.4
v 0.4 0.9 -0.1
v 0.4 0.9 -0.2
v 0.4 0.9 -0.3
v 0.4 1.1 -0.1
v 0.4 1.1 -0.2
v 0.4 1.1 -0.3
v -0.3 0.4 2.23517e-08
v -0.3 0.5 2.23517e-08
v -0.3 0.6 2.23517e-08
v -0.3 0.8 2.23517e-08
v -0.3 0.9 2.23517e-08
v -0.3 1.1 2.23517e-08
v -0.2 0.4 2.23517e-08
v -0.2 0.5 2.23517e-08
v -0.2 0.6 2.23517e-08
v -0.2 0.8 2.23517e-08
v -0.2 0.9 2.23517e-08
v -0.2 1 2.23517e-08
v -0.1 0.5 2.23517e-08
v -0.1 0.6 2.23517e-08
v -0.1 0.7 2.23517e-08
v -0.1 0.9 2.23517e-08
v -0.1 1 2.23517e-08
v -0.1 1.1 2.23517e-08
v 0 0.6 2.23517e-08
v 0 0.7 2.23517e-08
v 0 0.8 2.23517e-08
v 0 0.9 2.23517e-08
v 0 1 2.23517e-08
v 0 1.1 2.23517e-08
v 0.1 0.5 2.23517e-08
v 0.1 0.6 2.23517e-08
v 0.1 0.7 2.23517e-08
v 0.1 0.8 2.23517e-08
v 0.1 0.9 2.23517e-08
v 0.2 0.7 2.23517e-08
v 0.2 0.8 2.23517e-08
v 0.2 0.9 2.23517e-08
v 0.3 0.4 2.23517e-08
v 0.3 0.5 2.23517e-08
v 0.3 0.6 2.23517e-08
v 0.3 1.1 2.23517e-08
v -0.4 0.9 -0.1
v -0.4 1.1 -0.1
v -0.3 0.9 -0.1
v -0.3 1.1 -0.1
v -0.1 1.1 -0.1
v -0.1 1.2 -0.1
v 0 1.1 -0.1
v 0.1 1.1 -0.1
v 0.1 1.2 -0.1
v 0.3 0.9 -0.1
v 0.3 1.1 -0.1
v 0.4 0.9 -0.1
v 0.4 1.1 -0.1
v -0.4 0.9 -0.3
v -0.4 1 -0.3
v -0.4 1.1 -0.3
v -0.3 0.9 -0.3
v -0.3 1 -0.3
v -0.3 1.1 -0.3
v -0.1 1.1 -0.3
v -0.1 1.2 -0.3
v 0.1 1.1 -0.3
v 0.1 1.2 -0.3
v 0.3 0.9 -0.3
v 0.3 1.1 -0.3
v 0.4 0.9 -0.3
v 0.4 1.1 -0.3
v -0.3 0.4 -0.4
v -0.3 0.5 -0.4
v -0.3 0.6 -0.4
v -0.3 1 -0.4
v -0.3 1.1 -0.4
v -0.2 0.4 -0.4
v -0.2 0.5 -0.4
v -0.1 0.4 -0.4
v -0.1 0.5 -0.4
v -0.1 0.8 -0.4
v -0.1 0.9 -0.4
v -0.1 1 -0.4
v -0.1 1.1 -0.4
v 0 0.4 -0.4
v 0 0.5 -0.4
v 0 0.6 -0.4
v 0 0.7 -0.4
v 0 0.8 -0.4
v 0 0.9 -0.4
v 0.1 0.6 -0.4
v 0.1 0.7 -0.4
v 0.1 0.8 -0.4
v 0.1 0.9 -0.4
v 0.2 0.7 -0.4
v 0.2 0.9 -0.4
v 0.3 0.4 -0.4
v 0.3 0.5 -0.4
v 0.3 0.6 -0.4
v 0.3 1.1 -0.4
v -0.3 0.4 2.23517e-08
v -0.2 0.4 2.23517e-08
v 0.3 0.4 2.23517e-08
v -0.3 0.4 -0.1
v -0.2 0.4 -0.1
v -0.2 0.4 -0.3
v -0.1 0.4 -0.3
v 0 0.4 -0.3
v -0.3 0.4 -0.4
v -0.2 0.4 -0.4
v -0.1 0.4 -0.4
v 0 0.4 -0.4
v 0.3 0.4 -0.4
v -0.4 0.9 -0.1
v -0.3 0.9 -0.1
v 0.3 0.9 -0.1
v 0.4 0.9 -0.1
v -0.4 0.9 -0.2
v -0.3 0.9 -0.2
v 0.3 0.9 -0.2
v 0.4 0.9 -0.2
v -0.4 0.9 -0.3
v -0.3 0.9 -0.3
v 0.3 0.9 -0.3
v 0.4 0.9 -0.3
v -0.3 1.1 2.23517e-08
v -0.1 1.1 2.23517e-08
v 0 1.1 2.23517e-08
v 0.3 1.1 2.23517e-08
v -0.4 1.1 -0.1
v -0.3 1.1 -0.1
v -0.1 1.1 -0.1
v 0 1.1 -0.1
v 0.1 1.1 -0.1
v 0.3 1.1 -0.1
v 0.4 1.1 -0.1
v 0.3 1.1 -0.2
v 0.4 1.1 -0.2
v -0.4 1.1 -0.3
v -0.3 1.1 -0.3
v -0.1 1.1 -0.3
v 0.1 1.1 -0.3
v 0.3 1.1 -0.3
v 0.4 1.1 -0.3
v -0.3 1.1 -0.4
v -0.1 1.1 -0.4
v 0.3 1.1 -0.4
v -0.1 1.2 -0.1
v 0.1 1.2 -0.1
v -0.1 1.2 -0.3
v 0.1 1.2 -0.3

# faces
f 4/3/1 2/3/1 1/3/1
f 4/4/1 3/4/1 2/4/1
f 5/4/1 3/4/1 4/4/1
f 6/3/1 4/3/1 1/3/1
f 6/3/1 5/3/1 4/3/1
f 7/3/1 5/3/1 6/3/1
f 11/6/1 9/6/1 8/6/1
f 12/3/1 10/3/1 9/3/1
f 12/6/1 9/6/1 11/6/1
f 13/3/1 10/3/1 12/3/1
f 14/2/1 12/2/1 11/2/1
f 14/2/1 13/2/1 12/2/1
f 15/2/1 13/2/1 14/2/1
f 16/2/1 13/2/1 15/2/1
f 17/3/1 16/3/1 15/3/1
f 18/3/1 16/3/1 17/3/1
f 19/6/1 15/6/1 14/6/1
f 20/3/1 17/3/1 15/3/1
f 20/6/1 15/6/1 19/6/1
f 21/4/1 20/4/1 19/4/1
f 22/3/1 17/3/1 20/3/1
f 22/4/1 20/4/1 21/4/1
f 23/4/1 18/4/1 17/4/1
f 23/3/1 17/3/1 22/3/1
f 24/3/1 16/3/1 18/3/1
f 24/4/1 18/4/1 23/4/1
f 25/3/1 16/3/1 24/3/1
f 26/3/1 16/3/1 25/3/1
f 27/3/1 22/3/1 21/3/1
f 28/3/1 22/3/1 27/3/1
f 29/4/1 26/4/1 25/4/1
f 30/4/1 26/4/1 29/4/1
f 33/6/1 32/6/1 31/6/1
f 34/6/1 32/6/1 33/6/1
f 35/6/2 36/6/2 37/6/2
f 37/6/2 36/6/2 38/6/2
f 39/3/2 40/3/2 41/3/2
f 41/3/2 40/3/2 42/3/2
f 41/2/2 42/2/2 43/2/2
f 43/2/2 42/2/2 44/2/2
f 43/3/2 44/3/2 45/3/2
f 45/3/2 44/3/2 46/3/2
f 46/3/2 44/3/2 47/3/2
f 43/3/2 45/3/2 48/3/2
f 48/3/2 45/3/2 49/3/2
f 47/3/2 44/3/2 50/3/2
f 50/3/2 44/3/2 51/3/2
f 52/6/2 53/6/2 55/6/2
f 53/4/2 54/4/2 56/4/2
f 55/6/2 53/6/2 56/6/2
f 56/4/2 54/4/2 57/4/2
f 64/6/3 59/6/3 58/6/3
f 65/2/3 60/2/3 59/2/3
f 65/6/3 59/6/3 64/6/3
f 66/6/3 61/6/3 60/6/3
f 66/2/3 60/2/3 65/2/3
f 67/4/3 62/4/3 61/4/3
f 67/6/3 61/6/3 66/6/3
f 68/3/3 63/3/3 62/3/3
f 68/4/3 62/4/3 67/4/3
f 69/3/3 63/3/3 68/3/3
f 70/3/3 65/3/3 64/3/3
f 70/2/3 66/2/3 65/2/3
f 71/3/3 67/3/3 66/3/3
f 71/2/3 66/2/3 70/2/3
f 71/3/3 68/3/3 67/3/3
f 72/3/3 68/3/3 71/3/3
f 73/6/3 69/6/3 68/6/3
f 73/3/3 68/3/3 72/3/3
f 74/3/3 63/3/3 69/3/3
f 74/6/3 69/6/3 73/6/3
f 75/3/3 63/3/3 74/3/3
f 76/4/3 72/4/3 71/4/3
f 76/5/3 71/5/3 70/5/3
f 77/3/3 73/3/3 72/3/3
f 77/4/3 72/4/3 76/4/3
f 77/3/3 74/3/3 73/3/3
f 78/3/3 74/3/3 77/3/3
f 79/3/3 74/3/3 78/3/3
f 80/4/3 75/4/3 74/4/3
f 80/3/3 74/3/3 79/3/3
f 81/4/3 75/4/3 80/4/3
f 82/3/3 70/3/3 64/3/3
f 82/5/3 76/5/3 70/5/3
f 83/3/3 77/3/3 76/3/3
f 83/5/3 76/5/3 82/5/3
f 83/3/3 78/3/3 77/3/3
f 84/3/3 78/3/3 83/3/3
f 85/4/3 79/4/3 78/4/3
f 85/3/3 78/3/3 84/3/3
f 86/3/3 81/3/3 80/3/3
f 86/4/3 79/4/3 85/4/3
f 86/3/3 80/3/3 79/3/3
f 87/4/3 85/4/3 84/4/3
f 87/3/3 84/3/3 83/3/3
f 88/6/3 86/6/3 85/6/3
f 88/4/3 85/4/3 87/4/3
f 89/3/3 81/3/3 86/3/3
f 89/6/3 86/6/3 88/6/3
f 90/3/3 82/3/3 64/3/3
f 91/2/3 83/2/3 82/2/3
f 91/3/3 82/3/3 90/3/3
f 92/3/3 88/3/3 87/3/3
f 92/2/3 83/2/3 91/2/3
f 92/3/3 87/3/3 83/3/3
f 92/3/3 89/3/3 88/3/3
f 93/3/3 81/3/3 89/3/3
f 93/3/3 89/3/3 92/3/3
f 96/3/3 95/3/3 94/3/3
f 97/3/3 95/3/3 96/3/3
f 100/6/3 99/6/3 98/6/3
f 101/6/3 99/6/3 100/6/3
f 102/6/3 99/6/3 101/6/3
f 105/6/3 104/6/3 103/6/3
f 106/6/3 104/6/3 105/6/3
f 107/4/4 108/4/4 110/4/4
f 108/3/4 109/3/4 111/3/4
f 110/4/4 108/4/4 111/4/4
f 111/3/4 109/3/4 112/3/4
f 113/6/4 114/6/4 115/6/4
f 115/6/4 114/6/4 116/6/4
f 117/4/4 118/4/4 119/4/4
f 119/4/4 118/4/4 120/4/4
f 121/3/4 122/3/4 126/3/4
f 122/2/4 123/2/4 127/2/4
f 126/3/4 122/3/4 127/3/4
f 126/4/4 127/4/4 128/4/4
f 127/2/4 123/2/4 129/2/4
f 128/4/4 127/4/4 129/4/4
f 123/3/4 124/3/4 130/3/4
f 130/3/4 124/3/4 131/3/4
f 124/4/4 125/4/4 132/4/4
f 131/3/4 124/3/4 132/3/4
f 132/4/4 125/4/4 133/4/4
f 128/6/4 129/6/4 134/6/4
f 129/2/4 123/2/4 135/2/4
f 134/6/4 129/6/4 135/6/4
f 123/3/4 130/3/4 136/3/4
f 135/2/4 123/2/4 136/2/4
f 136/3/4 130/3/4 137/3/4
f 130/4/4 131/4/4 138/4/4
f 137/3/4 130/3/4 138/3/4
f 131/3/4 132/3/4 139/3/4
f 138/4/4 131/4/4 139/4/4
f 132/3/4 133/3/4 139/3/4
f 136/4/4 137/4/4 140/4/4
f 135/2/4 136/2/4 140/2/4
f 137/6/4 138/6/4 141/6/4
f 140/4/4 137/4/4 141/4/4
f 138/3/4 139/3/4 142/3/4
f 141/6/4 138/6/4 142/6/4
f 139/3/4 133/3/4 143/3/4
f 142/3/4 139/3/4 143/3/4
f 141/4/4 142/4/4 144/4/4
f 140/3/4 141/3/4 144/3/4
f 142/4/4 143/4/4 144/4/4
f 143/3/4 133/3/4 145/3/4
f 144/4/4 143/4/4 145/4/4
f 134/3/4 135/3/4 146/3/4
f 135/2/4 140/2/4 147/2/4
f 146/3/4 135/3/4 147/3/4
f 140/3/4 144/3/4 148/3/4
f 147/2/4 140/2/4 148/2/4
f 144/3/4 145/3/4 148/3/4
f 145/3/4 133/3/4 149/3/4
f 148/3/4 145/3/4 149/3/4
f 153/6/5 151/6/5 150/6/5
f 154/3/5 152/3/5 151/3/5
f 154/6/5 151/6/5 153/6/5
f 155/3/5 154/3/5 153/3/5
f 155/3/5 152/3/5 154/3/5
f 156/3/5 152/3/5 155/3/5
f 157/3/5 152/3/5 156/3/5
f 158/3/5 155/3/5 153/3/5
f 159/4/5 156/4/5 155/4/5
f 159/3/5 155/3/5 158/3/5
f 160/6/5 157/6/5 156/6/5
f 160/4/5 156/4/5 159/4/5
f 161/3/5 152/3/5 157/3/5
f 161/6/5 157/6/5 160/6/5
f 162/3/5 152/3/5 161/3/5
f 167/3/5 164/3/5 163/3/5
f 168/3/5 164/3/5 167/3/5
f 169/6/5 166/6/5 165/6/5
f 170/6/5 166/6/5 169/6/5
f 171/4/5 168/4/5 167/4/5
f 172/4/5 168/4/5 171/4/5
f 173/4/5 170/4/5 169/4/5
f 174/4/5 170/4/5 173/4/5
f 175/3/6 176/3/6 180/3/6
f 176/4/6 177/4/6 181/4/6
f 180/3/6 176/3/6 181/3/6
f 177/3/6 178/3/6 182/3/6
f 181/4/6 177/4/6 182/4/6
f 182/3/6 178/3/6 183/3/6
f 183/3/6 178/3/6 184/3/6
f 184/6/6 185/6/6 186/6/6
f 183/3/6 184/3/6 186/3/6
f 186/6/6 185/6/6 187/6/6
f 180/3/6 181/3/6 188/3/6
f 179/3/6 180/3/6 188/3/6
f 188/3/6 181/3/6 189/3/6
f 189/3/6 181/3/6 190/3/6
f 183/3/6 186/3/6 191/3/6
f 186/4/6 187/4/6 192/4/6
f 191/3/6 186/3/6 192/3/6
f 192/4/6 187/4/6 193/4/6
f 189/4/6 190/4/6 194/4/6
f 190/3/6 191/3/6 195/3/6
f 194/4/6 190/4/6 195/4/6
f 191/3/6 192/3/6 195/3/6
f 195/3/6 192/3/6 196/3/6
f 197/6/6 198/6/6 199/6/6
f 199/6/6 198/6/6 200/6/6
